<?xml version="1.0" standalone="no"?>
<!DOCTYPE svg PUBLIC "-//W3C//DTD SVG 20010904//EN"
 "http://www.w3.org/TR/2001/REC-SVG-20010904/DTD/svg10.dtd">
<svg version="1.0" xmlns="http://www.w3.org/2000/svg"
 width="682.000000pt" height="669.000000pt" viewBox="0 0 682.000000 669.000000"
 preserveAspectRatio="xMidYMid meet">

<g transform="translate(0.000000,669.000000) scale(0.100000,-0.100000)"
fill="#000000" stroke="none">
<path d="M158 4737 c-2 -1003 -2 -1831 0 -1840 3 -14 16 -17 73 -17 l69 0 2
438 3 437 440 5 c242 3 441 7 443 8 1 1 2 394 2 874 0 479 3 875 8 880 4 4
201 9 437 10 l430 3 3 64 c2 45 -1 67 -10 72 -17 11 -989 11 -1005 1 -10 -6
-13 -198 -15 -883 l-3 -874 -365 0 -365 0 0 1245 0 1245 1690 0 1690 0 0
-1245 0 -1245 -429 -3 c-305 -1 -433 -6 -443 -14 -12 -9 -14 -226 -12 -1387 1
-757 4 -1382 6 -1388 4 -10 116 -13 514 -13 400 0 509 3 510 13 1 6 1 199 0
428 -2 371 0 418 14 432 14 15 93 17 794 17 428 0 786 -3 795 -6 14 -6 16 -50
16 -434 0 -356 2 -430 14 -439 9 -7 38 -11 73 -9 l58 3 3 513 2 512 -952 -2
-953 -3 -5 -435 -5 -435 -365 0 -365 0 0 1245 0 1245 880 5 880 5 0 70 0 70
-436 3 -437 2 -6 24 c-3 13 -6 373 -6 799 0 628 3 777 14 786 9 7 150 12 442
13 l429 3 3 64 c2 45 -1 67 -10 72 -7 5 -205 9 -440 9 -236 0 -428 3 -428 8 0
4 -3 157 -6 339 -4 183 -3 344 0 358 l6 25 1248 -2 1247 -3 5 -1320 5 -1320
63 -3 c55 -3 63 -1 70 17 4 11 6 641 4 1400 l-2 1381 -3160 0 -3160 0 -2
-1823z"/>
<path d="M2812 5667 c-5 -7 -10 -203 -10 -437 -1 -233 -6 -428 -10 -432 -4 -4
-201 -9 -437 -10 l-430 -3 -3 -876 -2 -877 -28 -5 c-15 -3 -207 -6 -427 -6
-220 0 -406 -1 -412 -1 -10 0 -13 -98 -15 -437 l-3 -438 -437 -3 c-380 -2
-438 -4 -438 -17 0 -8 0 -433 0 -945 0 -511 0 -934 0 -940 0 -7 1060 -10 3160
-10 l3160 0 0 1395 c0 767 -3 1395 -7 1395 -5 0 -195 0 -423 1 -228 0 -423 3
-432 5 -17 5 -18 77 -18 1324 0 1192 -2 1318 -16 1324 -29 11 -111 6 -123 -7
-7 -10 -12 -146 -13 -443 l-3 -429 -435 -5 -435 -5 -3 -58 c-2 -34 2 -65 9
-73 9 -11 83 -14 423 -14 226 0 419 0 429 0 16 0 17 -45 17 -804 0 -747 -1
-804 -17 -810 -9 -4 -400 -6 -867 -6 -468 1 -857 1 -863 1 -9 -1 -13 -22 -13
-71 l0 -70 1313 0 c1008 0 1316 -3 1325 -12 9 -9 12 -299 12 -1245 0 -1217 0
-1232 -20 -1243 -20 -11 -1557 -14 -1585 -3 -13 4 -15 68 -15 439 l0 434 -23
5 c-13 4 -46 5 -73 3 l-49 -3 -3 -436 c-2 -433 -2 -437 -23 -442 -42 -11
-4209 -8 -4229 3 -20 11 -20 23 -20 805 0 789 0 794 20 805 14 8 152 11 436 9
240 -1 419 2 425 8 5 5 10 197 11 438 l3 430 360 0 360 0 0 -805 0 -805 -435
-5 -435 -5 0 -70 0 -70 510 0 510 0 3 1763 2 1762 38 0 c20 0 211 0 423 0 212
0 394 2 403 6 14 6 16 53 16 514 0 476 -1 509 -17 514 -32 9 -112 5 -121 -7z"/>
</g>
</svg>
